<svg width="32" height="32" viewBox="0 0 32 32" fill="none" xmlns="http://www.w3.org/2000/svg">
  <rect width="32" height="32" rx="6" fill="url(#gradient)"/>
  <path d="M10 12c0-1.1.9-2 2-2s2 .9 2 2c0 .5-.2 1-.5 1.3.3.3.5.8.5 1.3 0 1.1-.9 2-2 2s-2-.9-2-2c0-.5.2-1 .5-1.3-.3-.3-.5-.8-.5-1.3zm8 0c0-1.1.9-2 2-2s2 .9 2 2c0 .5-.2 1-.5 1.3.3.3.5.8.5 1.3 0 1.1-.9 2-2 2s-2-.9-2-2c0-.5.2-1 .5-1.3-.3-.3-.5-.8-.5-1.3zm-6 8c0-1.1.9-2 2-2s2 .9 2 2-.9 2-2 2-2-.9-2-2z" fill="white"/>
  <defs>
    <linearGradient id="gradient" x1="0" y1="0" x2="32" y2="32" gradientUnits="userSpaceOnUse">
      <stop stop-color="#6366F1"/>
      <stop offset="1" stop-color="#0EA5E9"/>
    </linearGradient>
  </defs>
</svg> 